# xmcd CD Database Entry
#
# Track frame offsets:
# 150
# 20700
# 42645
# 61177
# 78232
# 97577
# 120860
# 135270
# 153470
# 177867
# 206390
# 228795
# 244252
# 261592
# 283477
# 306340
# 331690
#
# Disc length: 4647 seconds
#
# Revision: 22
# Processed by: cddbd v1.5.2PL0 Copyright (c) Steve Scherf et al.
# Submitted via: tcd 2.0b
#
DISCID=e0122511
DTITLE=Sheryl Crow - The Very Best Of Sheryl Crow
DYEAR=2003
DGENRE=
TTITLE0=All I Wanna Do
TTITLE1=Soak Up The Sun
TTITLE2=My Favorite Mistake
TTITLE3=The First Cut Is The Deepest
TTITLE4=Everyday Is A Winding Road
TTITLE5=Leaving Las Vegas
TTITLE6=Strong Enough
TTITLE7=Light In Your Eyes
TTITLE8=If It Makes You Happy
TTITLE9=The Difficult Kind
TTITLE10=Picture [Kid Rock Featuring Sheryl Crow]
TTITLE11=Steve McQueen
TTITLE12=A Change Would Do You Good
TTITLE13=Home
TTITLE14=There Goes The Neighborhood
TTITLE15=I Shall Believe
TTITLE16=The First Cut Is The Deepest [Country Version, Bonus Track]
EXTD=YEAR: 2003
EXTT0=
EXTT1=
EXTT2=
EXTT3=
EXTT4=
EXTT5=
EXTT6=
EXTT7=
EXTT8=
EXTT9=
EXTT10=
EXTT11=
EXTT12=
EXTT13=
EXTT14=
EXTT15=
EXTT16=
PLAYORDER=
